<svg id="Layer_1" data-name="Layer 1" xmlns="http://www.w3.org/2000/svg" viewBox="0 0 650.85 466.24"><defs><style>.cls-1{fill:#ffd505;}.cls-1,.cls-2,.cls-3,.cls-4,.cls-5,.cls-6,.cls-7,.cls-8{fill-rule:evenodd;}.cls-2{fill:#000a3b;}.cls-3{fill:#a8aed2;}.cls-4{fill:#fff;}.cls-5{fill:#5d689e;}.cls-6{fill:#2ddb60;}.cls-7{fill:#ed6363;}.cls-8{fill:#06b8ff;}</style></defs><path class="cls-1" d="M757.91,1066.7a49.3,49.3,0,0,0,13.43-6.77,31.36,31.36,0,0,1,49.86,25c.17,18.24-4.62,38.13-14.22,54.13a31.4,31.4,0,0,1,1.63,18.57c-3.61,16.89-13.57,32.39-27,43.27a31.65,31.65,0,0,1-3,12.64c-9.88,21.14-31.47,36.73-54.69,39.24a66.4,66.4,0,0,1-24.43-2,122.6,122.6,0,0,1,.2,27.81c-2.89,23.37-12,46.28-31.24,60.89-13.79,10.48-34.24,16.74-50.73,9.13-7.14-3.29-15-10.66-21.5-17.63l-94.12,54.34a12.33,12.33,0,0,1-12.63,0L395.34,1331c-6.51,7-14.36,14.34-21.5,17.63-16.49,7.61-36.94,1.35-50.73-9.13-19.22-14.61-28.35-37.52-31.24-60.89a122.6,122.6,0,0,1,.2-27.81,66.4,66.4,0,0,1-24.43,2c-23.22-2.51-44.81-18.1-54.69-39.24a31.65,31.65,0,0,1-3-12.64c-13.44-10.88-23.39-26.38-27-43.27a31.4,31.4,0,0,1,1.62-18.57c-9.6-16-14.39-35.89-14.22-54.13a31.36,31.36,0,0,1,49.86-25,49.21,49.21,0,0,0,13.44,6.77c0-13,.05-26,0-39.08-20.17-12.21-27.65-32.29-38.55-53.25a12.62,12.62,0,0,1,11.2-18.46h225.4l57.74-33.33a12.33,12.33,0,0,1,12.63,0l57.73,33.33h225.4a12.63,12.63,0,0,1,11.21,18.46c-10.91,21-18.38,41-38.56,53.25,0,13,0,26.06,0,39.08" transform="translate(-170.36 -920.84)"/><polygon class="cls-2" points="325.42 12.68 420.88 67.79 516.33 122.9 516.33 233.12 516.33 343.34 420.88 398.45 325.42 453.56 229.97 398.45 134.52 343.34 134.52 233.12 134.52 122.9 229.97 67.79 325.42 12.68"/><polygon class="cls-3" points="156.29 261.55 156.29 330.77 325.42 428.42 494.56 330.77 494.56 261.55 156.29 261.55"/><polygon class="cls-4" points="168.92 274.18 168.92 323.47 325.42 413.83 481.92 323.47 481.92 274.18 168.92 274.18"/><polygon class="cls-2" points="181.56 286.81 181.56 316.18 325.42 399.25 469.29 316.18 469.29 286.81 181.56 286.81"/><path class="cls-2" d="M455.24,1068.6h81.08c6.54-3.57,15.09-7.86,20.78-8.56,12.64-1.55,36.29,6.2,47.54,11.38,10.18,4.68,21.39,12.87,26.85,23.44,5.31,4.52,11.12,10.25,13.56,15.77,3.93,8.93,7.42,18.76,10.79,27.92,6.9,18.81,13.34,37.9,18.88,57.17,6.69,23.26,15.41,57.24,12.44,81.33-2.46,19.86-9.94,39.92-26.35,52.38-9.88,7.51-25.75,13.28-37.79,7.73-11.79-5.44-33.7-33.11-41.92-44.53-3.74-5.19-15.84-21.38-22.46-24.85-6.33-.87-15.1-.78-21.28-.93-13.85-.34-27.72-.45-41.58-.45s-27.73.11-41.58.45c-6.17.15-14.95.06-21.28.93-6.62,3.47-18.71,19.66-22.45,24.85-8.23,11.42-30.14,39.09-41.92,44.53-12,5.55-27.91-.22-37.8-7.73-16.41-12.46-23.89-32.52-26.34-52.38-3-24.09,5.74-58.07,12.43-81.33,5.54-19.27,12-38.36,18.89-57.17,3.36-9.16,6.86-19,10.79-27.92,2.43-5.52,8.24-11.25,13.56-15.77,5.45-10.57,16.66-18.76,26.84-23.44,11.25-5.18,34.9-12.93,47.54-11.38,5.69.7,14.25,5,20.78,8.56" transform="translate(-170.36 -920.84)"/><path class="cls-2" d="M768.24,1195.07c14-9.08,24.57-23.9,28-40a18.37,18.37,0,0,0-4.23-16.32c11.33-14.91,16.73-35.66,16.55-53.63a18.73,18.73,0,0,0-29.78-14.95c-32,23.41-83.24,6.59-119.6,33.86-23.06,17.3-41.51,64.74-49.58,92.23a18.67,18.67,0,0,0,10.91,22.62c15.52,6.32,21.94-10,56.31,8.59,14.38,7.75,28.91,14.65,45.73,12.83,18.82-2,36.6-14.88,44.6-32a18.49,18.49,0,0,0,1.08-13.17" transform="translate(-170.36 -920.84)"/><path class="cls-1" d="M627.58,1201.49s19-64.67,42.85-82.52c30.66-23,82.64-6.85,119.41-33.72,0,0,.4,32.53-18.64,48.4s-73.2-.28-96.21,10.83-47.41,57-47.41,57" transform="translate(-170.36 -920.84)"/><path class="cls-1" d="M655.35,1178.48s15.08-20.43,30.95-23.21c23.68-4.14,71.46,9.49,91.64-4.16,0,0-5.16,24.4-28.56,32.53-29.82,10.36-67.08-20.55-94-5.16" transform="translate(-170.36 -920.84)"/><path class="cls-1" d="M644.23,1199.58s16.27-13.94,29.84-13.22c20.25,1.09,56.95,21.35,76.13,14,0,0-8.87,19.08-29.65,21.33-26.48,2.86-51.25-29.61-76.32-22.06" transform="translate(-170.36 -920.84)"/><path class="cls-2" d="M223.32,1195.07c-14-9.08-24.56-23.9-28-40a18.37,18.37,0,0,1,4.23-16.32c-11.32-14.91-16.72-35.66-16.55-53.63a18.73,18.73,0,0,1,29.78-14.95c32,23.41,83.24,6.59,119.6,33.86,23.07,17.3,41.51,64.74,49.58,92.23A18.67,18.67,0,0,1,371,1218.84c-15.51,6.32-21.93-10-56.31,8.59-14.37,7.75-28.91,14.65-45.73,12.83-18.82-2-36.59-14.88-44.6-32a18.55,18.55,0,0,1-1.08-13.17" transform="translate(-170.36 -920.84)"/><path class="cls-1" d="M364,1201.49s-19-64.67-42.85-82.52c-30.66-23-82.64-6.85-119.41-33.72,0,0-.4,32.53,18.65,48.4s73.2-.28,96.21,10.83,47.4,57,47.4,57" transform="translate(-170.36 -920.84)"/><path class="cls-1" d="M336.21,1178.48s-15.07-20.43-30.94-23.21c-23.68-4.14-71.47,9.49-91.65-4.16,0,0,5.16,24.4,28.57,32.53,29.82,10.36,67.08-20.55,94-5.16" transform="translate(-170.36 -920.84)"/><path class="cls-1" d="M347.33,1199.58s-16.26-13.94-29.83-13.22c-20.26,1.09-56.95,21.35-76.13,14,0,0,8.86,19.08,29.65,21.33,26.47,2.86,51.24-29.61,76.31-22.06" transform="translate(-170.36 -920.84)"/><path class="cls-2" d="M785.23,968.54c-11,21.22-18,41.73-40,51.43-.08,16.76,0,33.54,0,50.3,0,16.52-13.21,28.53-29.71,26.13-73.78-10.76-145.81-16.66-219.79-17.23-74,.57-146,6.47-219.79,17.23-16.5,2.4-29.7-9.61-29.7-26.13,0-16.76.07-33.54,0-50.3-21.92-9.7-28.92-30.21-40-51.43h578.9Z" transform="translate(-170.36 -920.84)"/><path class="cls-4" d="M450.39,1087.3s-14.74-8.27-18.21-8.7-20.51,2-37.44,9.8-19.11,17.9-19.11,17.9-10.41,8.28-12,11.87-46,113.24-40.66,156.59,33,47.61,37.74,45.42,22.65-21.92,34.58-38.48,22.77-28.49,32.15-31.9c7.69-2.8,129-2.8,136.69,0,9.37,3.41,20.21,15.34,32.14,31.9s29.83,36.28,34.58,38.48,32.39-2.08,37.75-45.42-39.09-153-40.67-156.59-12-11.87-12-11.87-2.2-10.1-19.12-17.9-34-10.23-37.44-9.8-18.21,8.7-18.21,8.7Z" transform="translate(-170.36 -920.84)"/><path class="cls-3" d="M531.53,1166.43c8.45-14.61,2.19-30,2.19-30s30.68-36,34.82-37,20.46,3.65,31.17,10.71,12.18,9.25,12.18,9.25-12.18,16.08-6.57,29.23,37.25,95,37.74,126.14-9,39.57-12,38.47c-11.17-4-35.68-56.94-63.56-68.67-6.16-2.59-137.18-2.59-143.34,0-27.88,11.73-52.39,64.65-63.56,68.67-3,1.1-12.53-7.31-12.05-38.47s32.15-113,37.75-126.14-6.58-29.23-6.58-29.23,1.47-2.19,12.18-9.25,27-11.69,31.17-10.71,34.82,37,34.82,37-6.25,15.34,2.19,30c9.63,16.66,61.87,16.66,71.5,0" transform="translate(-170.36 -920.84)"/><path class="cls-2" d="M451.86,1081.69h87.85c5-2.8,14.87-8.15,19-8.66s11.54,1,15.58,1.92a125.64,125.64,0,0,1,24.89,8.36c8.34,3.84,20.1,12,22.25,21.78l14.71,21.73-1.47,8.47c-4.6-11-12.12-21.13-45.18-36-5.54-2.13-19.47-6.86-25.45-4.32a64,64,0,0,0-5.37,5.3c-3.36,3.45-6.68,7-10,10.42-3.61,3.73-15,16.09-19.59,17.5-2.59.79-17.93,1.19-33.27,1.19s-30.68-.4-33.27-1.19c-4.61-1.41-16-13.77-19.58-17.5-3.35-3.47-6.66-7-10-10.42a67.19,67.19,0,0,0-5.37-5.3c-6-2.54-19.92,2.19-25.46,4.32-33.05,14.88-40.57,25-45.18,36l-1.47-8.47,14.72-21.73c2.15-9.74,13.9-17.94,22.25-21.78a125.33,125.33,0,0,1,24.88-8.36c4-.91,11.47-2.42,15.59-1.92s14,5.86,19,8.66" transform="translate(-170.36 -920.84)"/><path class="cls-3" d="M450.39,1087.3s-14.74-8.27-18.21-8.7-20.51,2-37.44,9.8-19.11,17.9-19.11,17.9C386.52,1099,418,1084,430.3,1090.06c2.86,1.4,29.47,31.42,33.85,32.75,3.77,1.16,59.5,1.16,63.26,0,4.39-1.33,31-31.35,33.85-32.75,12.36-6,43.78,8.91,54.68,16.24,0,0-2.2-10.1-19.12-17.9s-34-10.23-37.44-9.8-18.21,8.7-18.21,8.7Z" transform="translate(-170.36 -920.84)"/><path class="cls-5" d="M439.52,1099c9,9.41,21.72,22.91,24.63,23.79,1.77.54,15.06.83,29,.86h5.22c14,0,27.25-.31,29-.86,2.91-.88,15.59-14.38,24.64-23.79h0s-8,4-8.11,3.35-2.77-15.07-2.77-15.07H519.83c12.95,3.87,13.63,13.79,4.26,23-8,7.84-48.63,7.84-56.62,0-9.37-9.19-8.68-19.11,4.26-23H450.39s-2.65,14.46-2.77,15.07-8.1-3.35-8.1-3.35Z" transform="translate(-170.36 -920.84)"/><path class="cls-4" d="M411.37,1090.37Zm33.84-5.88c-4.6-2.45-10.91-5.63-13-5.89-2.64-.32-13.18,1-25.54,5.12.09,0,6.52-.6,8.28-.11s2.55,3.71,2.13,4.14a62.23,62.23,0,0,1-5.67,2.62c7.55-1.94,14.47-2.49,18.92-.31,0,0,2.09-8.58,3.19-9S444.89,1084.37,445.21,1084.49Z" transform="translate(-170.36 -920.84)"/><path class="cls-2" d="M407.27,1124.92a23.63,23.63,0,1,1-23.63,23.63,23.63,23.63,0,0,1,23.63-23.63" transform="translate(-170.36 -920.84)"/><path class="cls-5" d="M407.27,1130.53a18,18,0,1,1-18,18,18,18,0,0,1,18-18" transform="translate(-170.36 -920.84)"/><path class="cls-2" d="M598.72,1126.88a16.31,16.31,0,1,1-16.31-16.31,16.31,16.31,0,0,1,16.31,16.31" transform="translate(-170.36 -920.84)"/><path class="cls-1" d="M593.11,1126.88a10.7,10.7,0,1,1-10.7-10.7,10.7,10.7,0,0,1,10.7,10.7" transform="translate(-170.36 -920.84)"/><path class="cls-2" d="M598.72,1179.24a16.31,16.31,0,1,1-16.31-16.31,16.31,16.31,0,0,1,16.31,16.31" transform="translate(-170.36 -920.84)"/><path class="cls-6" d="M593.11,1179.24a10.7,10.7,0,1,1-10.7-10.7,10.69,10.69,0,0,1,10.7,10.7" transform="translate(-170.36 -920.84)"/><path class="cls-2" d="M463.83,1190.92h7a9.64,9.64,0,0,1,9.62,9.63v9.37a9.64,9.64,0,0,1-9.62,9.63h-7v7a9.64,9.64,0,0,1-9.63,9.63h-9.37a9.64,9.64,0,0,1-9.63-9.63v-7h-7a9.65,9.65,0,0,1-9.63-9.63v-9.37a9.65,9.65,0,0,1,9.63-9.63h7v-7a9.64,9.64,0,0,1,9.63-9.63h9.37a9.64,9.64,0,0,1,9.63,9.63Z" transform="translate(-170.36 -920.84)"/><path class="cls-5" d="M444.83,1179.91h9.37a4,4,0,0,1,4,4v12.6h12.61a4,4,0,0,1,4,4v9.37a4,4,0,0,1-4,4H458.22v12.6a4,4,0,0,1-4,4h-9.37a4,4,0,0,1-4-4v-12.6h-12.6a4,4,0,0,1-4-4v-9.37a4,4,0,0,1,4-4h12.6v-12.6a4,4,0,0,1,4-4" transform="translate(-170.36 -920.84)"/><path class="cls-3" d="M444.83,1179.91h9.37a4,4,0,0,1,4,4v12.6h12.61a4,4,0,0,1,4,4v4.1a4,4,0,0,1-4,4H458.22v12.6a4,4,0,0,1-4,4h-9.37a4,4,0,0,1-4-4v-12.6h-12.6a4,4,0,0,1-4-4v-4.1a4,4,0,0,1,4-4h12.6v-12.6a4,4,0,0,1,4-4" transform="translate(-170.36 -920.84)"/><path class="cls-2" d="M538.52,1181.61a23.63,23.63,0,1,1-23.63,23.63,23.63,23.63,0,0,1,23.63-23.63" transform="translate(-170.36 -920.84)"/><path class="cls-5" d="M538.52,1187.22a18,18,0,1,1-18,18,18,18,0,0,1,18-18" transform="translate(-170.36 -920.84)"/><path class="cls-2" d="M469.43,1142.64a7.26,7.26,0,1,1-7.25,7.25,7.26,7.26,0,0,1,7.25-7.25" transform="translate(-170.36 -920.84)"/><path class="cls-2" d="M522.13,1142.64a7.26,7.26,0,1,0,7.26,7.25,7.26,7.26,0,0,0-7.26-7.25" transform="translate(-170.36 -920.84)"/><path class="cls-2" d="M608.59,1169.37a16.31,16.31,0,1,1,16.31-16.31,16.31,16.31,0,0,1-16.31,16.31" transform="translate(-170.36 -920.84)"/><path class="cls-7" d="M608.59,1163.76a10.7,10.7,0,1,1,10.7-10.7,10.69,10.69,0,0,1-10.7,10.7" transform="translate(-170.36 -920.84)"/><path class="cls-2" d="M556.24,1169.37a16.31,16.31,0,1,1,16.3-16.31,16.31,16.31,0,0,1-16.3,16.31" transform="translate(-170.36 -920.84)"/><path class="cls-8" d="M556.24,1163.76a10.7,10.7,0,1,1,10.69-10.7,10.7,10.7,0,0,1-10.69,10.7" transform="translate(-170.36 -920.84)"/><path class="cls-4" d="M580.19,1090.37Zm-33.84-5.88c4.6-2.45,10.91-5.63,13-5.89,2.65-.32,13.18,1,25.54,5.12-.09,0-6.52-.6-8.27-.11s-2.56,3.71-2.13,4.14a61,61,0,0,0,5.67,2.62c-7.55-1.94-14.48-2.49-18.93-.31,0,0-2.09-8.58-3.18-9S546.67,1084.37,546.35,1084.49Z" transform="translate(-170.36 -920.84)"/><path class="cls-3" d="M407.27,1132.53a13.1,13.1,0,1,1-13.1,13.1,13.11,13.11,0,0,1,13.1-13.1" transform="translate(-170.36 -920.84)"/><path class="cls-3" d="M538.52,1189.22a13.1,13.1,0,1,1-13.1,13.09,13.09,13.09,0,0,1,13.1-13.09" transform="translate(-170.36 -920.84)"/><path class="cls-4" d="M636,1003.1V1025q-8.84-.42-17.58-.8v-21.47l17.58.33M596,987.27v76.82l22.5,1.76v-26.23c3.72.2,7.44.44,11.22.71l3.88,13.61q1.94,6.86,3.88,13.75c7.5.76,15,1.51,22.55,2.4v-7.45c-1.71-4.25-3.46-8.48-5.12-12.67s-3.37-8.32-5-12.45l3.36-.67c2.95-.57,5.33-3.87,5.33-6.74V995.3c0-4.81-3.31-8-8.28-8Zm-14.07,75.86V1048.3c-10.91-.51-21.82-1-32.74-1.37v-16.27c9.37.22,18.73.52,28.14.83v-14.8c-9.41-.2-18.77-.4-28.14-.55V1001.9q14.52.11,29.12.3c1.19-2.69,2.38-5.38,3.62-8.08v-6.85H526.76v73.41Q554.3,1061.61,581.89,1063.13Zm-124.79-2.5c6.2-.11,12.46-.18,18.72-.25,1.14-6.27,2.38-12.56,3.51-18.84s2.38-12.55,3.57-18.83l8.07,0v37.54q10.86.11,21.72.24v-6.94c-1.5-11-3.05-22.1-4.5-33.14s-3-22.07-4.44-33.1H477c-1.76,5.16-3.57,10.32-5.28,15.48s-3.52,10.32-5.22,15.49c-1.76-5.15-3.57-10.31-5.28-15.46s-3.51-10.34-5.22-15.51H429.32q-2.32,16.83-4.6,33.73c-1.5,11.28-3,22.62-4.5,34v7.1c7.29-.41,14.59-.66,21.88-.9v-38l8-.14c1.14,6.29,2.33,12.59,3.47,18.86S455.91,1054.39,457.1,1060.63Zm-89.53-27.2c.52-5.14,1.09-10.28,1.6-15.4s1.09-10.23,1.66-15.34l8.74-.14q.78,7.56,1.55,15.11c.52,5,1.09,10,1.66,15.05ZM354,987.27c-2.07,12.08-4.2,24.23-6.21,36.44s-4.14,24.61-6.15,37v7.62c7.55-.78,15.1-1.58,22.65-2.34q.93-8.57,1.86-17.11l18.21-1.17q.85,8.28,1.7,16.51c7.56-.61,15.16-1.07,22.76-1.52v-7.09q-3.1-17-6.21-34t-6.2-34.33ZM671.42,1055v16.47c15.62,1.91,31.23,4.15,46.85,6.38,5,.77,8.28-2.25,8.28-7.59v-22.39c0-6.79-1-10.22-6.36-14.51q-13.2-10.17-26.28-19.81v-9.11q17.7.49,35.43,1c8.28-1.73,16-5.74,21.67-12.93a40.23,40.23,0,0,0,3.36-5.29H679.85c-5,0-8.43,3.2-8.43,8.18v19c0,6.29,1,9.27,6.36,13.19q13.11,9.54,26.27,19.73v11.18Q687.69,1056.62,671.42,1055Zm-343.88,14.87V1024l-22.5,1.28v30.8c-5.89.62-11.74,1.34-17.58,2v-53.47q17.93-.54,35.94-1c1.19-3,2.38-6,3.62-8.93v-7.47H237.19a36.48,36.48,0,0,0,3.31,5.29c5.69,7.27,13.6,11.27,22,12.94.83.16,1.65.33,2.48.48v64c0,5.41,3.41,8.27,8.43,7.51Q300.47,1073.35,327.54,1069.88Z" transform="translate(-170.36 -920.84)"/><path class="cls-3" d="M399.49,1024.1H385.32c.3,2.74.62,5.48.93,8.22a3.5,3.5,0,0,1-3.31,3.88l-15.2.72a3.48,3.48,0,0,1-3.64-3.84c.3-3,.62-6,.93-9H351.24l0,.18c-2,12.24-4.11,24.46-6.11,36.71v3.47q8-.84,16-1.66l1.56-14.3a3.48,3.48,0,0,1,3.26-3.11q9.09-.57,18.19-1.17a3.49,3.49,0,0,1,3.7,3.13q.68,6.57,1.36,13.12c5.37-.4,10.76-.74,16.14-1.06v-3.48q-2.91-15.92-5.81-31.83m39.12,0H427.83l-4.12,31.08v3.19c5-.25,9.93-.43,14.9-.6V1024.1Zm40.47,0H453.81c1,5.71,2.12,11.42,3.15,17.13,1,5.29,2,10.57,3,15.86q6.46-.1,12.93-.17c1-5.34,2-10.66,3-16C476.92,1035.3,478,1029.71,479.08,1024.1Zm26.08,0h-10.7v32.66c4.92,0,9.83.1,14.74.15v-3.17C507.86,1043.86,506.48,1034,505.16,1024.1Zm68.64,0H530.25v33.2q24.09.85,48.15,2.14v-7.81c-9.79-.44-19.57-.87-29.36-1.2a3.51,3.51,0,0,1-3.38-3.5v-16.27a3.52,3.52,0,0,1,3.58-3.5q12.28.3,24.56.72Zm81.25,0H639.53v.94a3.38,3.38,0,0,1-1.08,2.53,3.42,3.42,0,0,1-2.57,1q-8.79-.42-17.58-.8a3.5,3.5,0,0,1-3.34-3.49v-.14H599.45v36.76l15.51,1.21v-22.45a3.49,3.49,0,0,1,3.69-3.49c3.76.21,7.51.45,11.27.71a3.43,3.43,0,0,1,3.12,2.53q1.94,6.81,3.88,13.62l3.24,11.47q8.16.81,16.33,1.71v-2.86c-1.62-4-3.28-8-4.87-12.06s-3.35-8.29-5-12.44a3.48,3.48,0,0,1,2.57-4.72l3.37-.67a3.9,3.9,0,0,0,2.5-3.31Zm47.23,0H679c.28.22.57.45.89.68q13.3,9.72,26.35,19.79a3.38,3.38,0,0,1,1.35,2.76v11.18a3.48,3.48,0,0,1-3.89,3.46q-14.35-1.63-28.74-3.1v9.52c14.65,1.82,29.26,3.89,43.87,6,3.05.44,4.28-1.19,4.28-4.14v-22.39c0-5.63-.47-8.2-5-11.76C712.83,1032.05,707.57,1028.06,702.28,1024.1Zm-378.23,42.71v-39.13l-15.51.88v27.5a3.48,3.48,0,0,1-3.13,3.47c-5.85.62-11.69,1.33-17.53,2a3.44,3.44,0,0,1-2.74-.85,3.4,3.4,0,0,1-1.17-2.62v-34H268.45V1070c0,3,1.32,4.53,4.41,4.06Q298.42,1070.13,324.05,1066.81Z" transform="translate(-170.36 -920.84)"/><polygon class="cls-1" points="307.94 346.87 307.94 341.87 312.93 341.87 317.93 341.87 317.93 344.37 317.93 346.87 320.43 346.87 322.93 346.87 322.93 349.36 322.93 351.86 325.42 351.86 327.92 351.86 327.92 349.36 327.92 346.87 330.42 346.87 332.92 346.87 332.92 344.37 332.92 341.87 337.91 341.87 342.91 341.87 342.91 346.87 342.91 351.86 340.41 351.86 337.91 351.86 337.91 354.36 337.91 356.86 335.41 356.86 332.92 356.86 332.92 359.36 332.92 361.85 335.41 361.85 337.91 361.85 337.91 364.35 337.91 366.85 340.41 366.85 342.91 366.85 342.91 371.84 342.91 376.84 337.91 376.84 332.92 376.84 332.92 374.34 332.92 371.84 330.42 371.84 327.92 371.84 327.92 369.35 327.92 366.85 325.42 366.85 322.93 366.85 322.93 369.35 322.93 371.84 320.43 371.84 317.93 371.84 317.93 374.34 317.93 376.84 312.93 376.84 307.94 376.84 307.94 371.84 307.94 366.85 310.44 366.85 312.93 366.85 312.93 364.35 312.93 361.85 315.43 361.85 317.93 361.85 317.93 359.36 317.93 356.86 315.43 356.86 312.93 356.86 312.93 354.36 312.93 351.86 310.44 351.86 307.94 351.86 307.94 346.87"/></svg>